<svg xmlns="http://www.w3.org/2000/svg" xmlns:xlink="http://www.w3.org/1999/xlink" width="16" height="24" viewBox="0 0 16 16"><path d="M8 3.5c2.49 0 4.5 2.01 4.5 4.5s-2.01 4.5-4.5 4.5S3.5 10.49 3.5 8 5.51 3.5 8 3.5zM8 5C6.345 5 5 6.345 5 8s1.35 3 3 3 3-1.345 3-3-1.345-3-3-3zm6-2a1 1 0 1 1-2 0 1 1 0 0 1 2 0zm1.944 1.701c-.06-1.282-.354-2.417-1.292-3.352C13.716.413 12.582.12 11.3.056c-1.32-.075-5.28-.075-6.6 0-1.278.06-2.413.354-3.352 1.29C.41 2.28.12 3.415.056 4.697c-.075 1.32-.075 5.28 0 6.6.06 1.283.354 2.418 1.292 3.353.94.936 2.07 1.229 3.352 1.293 1.32.075 5.28.075 6.6 0 1.281-.06 2.416-.354 3.352-1.293.935-.935 1.228-2.07 1.292-3.352.075-1.321.075-5.277 0-6.598z" fill="currentColor"></path></svg>