<svg xmlns="http://www.w3.org/2000/svg" xmlns:xlink="http://www.w3.org/1999/xlink" width="16" height="24" viewBox="0 0 16 16"><path d="M13 0a3 3 0 013 3v10a3 3 0 01-3 3H3a3 3 0 01-3-3V3a3 3 0 013-3h10zM4.84 6.079H2.463v7.635H4.84V6.08zm6.039-.19c-1.154 0-1.929.632-2.247 1.232H8.6V6.08H6.325v7.635h2.371V9.936c0-.997.19-1.961 1.425-1.961 1.215 0 1.233 1.14 1.233 2.025v3.714h2.371V9.53c0-2.058-.446-3.64-2.846-3.64zM3.65 2.286a1.376 1.376 0 10.001 2.75 1.376 1.376 0 00-.001-2.75z" fill="currentColor"></path></svg>