<svg xmlns="http://www.w3.org/2000/svg" xmlns:xlink="http://www.w3.org/1999/xlink" width="18" height="24" viewBox="0 0 18 15"><path d="M16.15 3.738c.011.164.011.329.011.492C16.161 9.234 12.449 15 5.665 15c-2.09 0-4.032-.621-5.665-1.699.297.035.583.047.89.047a7.27 7.27 0 004.58-1.618c-1.577-.03-2.963-1.084-3.448-2.625.23.037.463.057.696.059.331 0 .663-.047.97-.13C1.968 8.678.73 7.125.732 5.32v-.047a3.644 3.644 0 001.668.48A3.81 3.81 0 01.754 2.602c0-.703.183-1.347.502-1.91C3.13 3.058 5.895 4.497 8.863 4.652a4.388 4.388 0 01-.092-.867C8.771 1.7 10.416 0 12.461 0c1.062 0 2.021.457 2.695 1.195a7.152 7.152 0 002.342-.914 3.759 3.759 0 01-1.622 2.086A7.257 7.257 0 0018 1.781a8.046 8.046 0 01-1.85 1.957z" fill="currentColor"></path></svg>